<svg width="500" height="500" viewBox="0 0 500 500" xmlns="http://www.w3.org/2000/svg">
  <!-- Definitions for gradients and effects -->
  <defs>
    <!-- Sky gradient -->
    <linearGradient id="sky_gradient" x1="0%" y1="0%" x2="0%" y2="100%">
      <stop offset="0%" style="stop-color:#283593;stop-opacity:1" />
      <stop offset="100%" style="stop-color:#5C6BC0;stop-opacity:1" />
    </linearGradient>
    
    <!-- Land gradient -->
    <linearGradient id="land_gradient" x1="0%" y1="0%" x2="100%" y2="0%">
      <stop offset="0%" style="stop-color:#795548;stop-opacity:1" />
      <stop offset="50%" style="stop-color:#8D6E63;stop-opacity:1" />
      <stop offset="100%" style="stop-color:#6D4C41;stop-opacity:1" />
    </linearGradient>
    
    <!-- Water gradient -->
    <linearGradient id="water_gradient" x1="0%" y1="0%" x2="0%" y2="100%">
      <stop offset="0%" style="stop-color:#1565C0;stop-opacity:1" />
      <stop offset="100%" style="stop-color:#0D47A1;stop-opacity:1" />
    </linearGradient>
    
    <!-- Glow effect for fumaroles -->
    <filter id="glow" height="300%" width="300%" x="-100%" y="-100%">
      <feGaussianBlur stdDeviation="3" result="blur" />
      <feColorMatrix in="blur" mode="matrix" values="1 0 0 0 0  0 1 0 0 0  0 0 1 0 0  0 0 0 18 -7" result="glow" />
      <feBlend in="SourceGraphic" in2="glow" mode="normal" />
    </filter>
    
    <!-- Crater inner gradients -->
    <radialGradient id="crater_gradient1" cx="50%" cy="50%" r="50%" fx="50%" fy="50%">
      <stop offset="0%" style="stop-color:#FF9800;stop-opacity:0.2" />
      <stop offset="100%" style="stop-color:#BF360C;stop-opacity:0" />
    </radialGradient>
    
    <radialGradient id="crater_gradient2" cx="50%" cy="50%" r="50%" fx="50%" fy="50%">
      <stop offset="0%" style="stop-color:#FFEB3B;stop-opacity:0.15" />
      <stop offset="100%" style="stop-color:#F57F17;stop-opacity:0" />
    </radialGradient>
    
    <!-- Steam texture -->
    <radialGradient id="steam_gradient" cx="50%" cy="50%" r="50%" fx="40%" fy="40%">
      <stop offset="0%" style="stop-color:#FFFFFF;stop-opacity:0.8" />
      <stop offset="100%" style="stop-color:#E0E0E0;stop-opacity:0" />
    </radialGradient>
    
    <!-- Island texture -->
    <linearGradient id="island_gradient" x1="0%" y1="0%" x2="100%" y2="100%">
      <stop offset="0%" style="stop-color:#8D6E63;stop-opacity:1" />
      <stop offset="100%" style="stop-color:#5D4037;stop-opacity:1" />
    </linearGradient>
  </defs>
  
  <!-- Sky background -->
  <rect width="500" height="500" fill="url(#sky_gradient)"/>
  
  <!-- Stars in the sky -->
  <g id="stars">
    <circle cx="50" cy="40" r="1" fill="white" opacity="0.7"/>
    <circle cx="100" cy="60" r="1.2" fill="white" opacity="0.8"/>
    <circle cx="150" cy="30" r="0.8" fill="white" opacity="0.6"/>
    <circle cx="200" cy="50" r="1" fill="white" opacity="0.7"/>
    <circle cx="250" cy="20" r="1.3" fill="white" opacity="0.8"/>
    <circle cx="300" cy="40" r="0.9" fill="white" opacity="0.7"/>
    <circle cx="350" cy="60" r="1.1" fill="white" opacity="0.8"/>
    <circle cx="400" cy="30" r="0.7" fill="white" opacity="0.6"/>
    <circle cx="450" cy="50" r="1" fill="white" opacity="0.7"/>
    <circle cx="75" cy="80" r="1.2" fill="white" opacity="0.8"/>
    <circle cx="125" cy="45" r="0.9" fill="white" opacity="0.7"/>
    <circle cx="175" cy="65" r="1.1" fill="white" opacity="0.8"/>
    <circle cx="225" cy="35" r="0.8" fill="white" opacity="0.6"/>
    <circle cx="275" cy="55" r="1" fill="white" opacity="0.7"/>
    <circle cx="325" cy="25" r="1.3" fill="white" opacity="0.8"/>
    <circle cx="375" cy="45" r="0.9" fill="white" opacity="0.7"/>
    <circle cx="425" cy="65" r="1.1" fill="white" opacity="0.8"/>
    <circle cx="475" cy="35" r="0.7" fill="white" opacity="0.6"/>
  </g>
  
  <!-- Moon -->
  <circle cx="420" cy="80" r="35" fill="#FFF9C4" filter="url(#glow)" opacity="0.9"/>
  <circle cx="405" cy="75" r="12" fill="#FFF9C4" opacity="0.3"/>
  
  <!-- Land with volcanic fields -->
  <path d="M0,200 C40,180 80,210 120,190 C160,170 200,180 240,165 C280,150 320,170 360,180 C400,190 450,170 500,180 L500,330 C420,320 380,340 250,325 C120,335 80,320 0,330 Z" fill="url(#land_gradient)"/>
  
  <!-- Campi Flegrei caldera shape overlay -->
  <path d="M50,200 C100,180 150,190 200,175 C250,160 300,180 350,175 C410,170 450,185 500,180 L500,270 C420,260 350,250 300,265 C250,280 200,260 150,275 C100,290 50,280 0,290 Z" fill="#795548" opacity="0.3"/>
  
  <!-- Multiple craters with texture and glow effects -->
  <g id="craters">
    <!-- Solfatara -->
    <circle cx="120" cy="200" r="25" fill="#3E2723"/>
    <circle cx="120" cy="200" r="20" fill="url(#crater_gradient1)" filter="url(#glow)"/>
    
    <!-- Pisciarelli -->
    <circle cx="150" cy="180" r="15" fill="#3E2723"/>
    <circle cx="150" cy="180" r="12" fill="url(#crater_gradient2)"/>
    
    <!-- Astroni -->
    <circle cx="190" cy="190" r="18" fill="#3E2723"/>
    <circle cx="190" cy="190" r="15" fill="url(#crater_gradient1)"/>
    
    <!-- Monte Nuovo -->
    <circle cx="250" cy="200" r="22" fill="#3E2723"/>
    <circle cx="250" cy="200" r="18" fill="url(#crater_gradient2)" filter="url(#glow)"/>
    
    <!-- Averno -->
    <circle cx="300" cy="190" r="20" fill="#3E2723"/>
    <circle cx="300" cy="190" r="17" fill="url(#crater_gradient1)"/>
    
    <!-- Agnano -->
    <circle cx="350" cy="200" r="23" fill="#3E2723"/>
    <circle cx="350" cy="200" r="19" fill="url(#crater_gradient2)"/>
  </g>
  
  <!-- Steam and fumaroles with animation -->
  <g id="fumaroles">
    <!-- Solfatara fumarole -->
    <path d="M120,175 Q110,160 120,145 Q130,160 120,175" fill="url(#steam_gradient)" opacity="0.7" filter="url(#glow)">
      <animate attributeName="d" values="M120,175 Q110,160 120,145 Q130,160 120,175;M120,175 Q130,160 120,145 Q110,160 120,175;M120,175 Q110,160 120,145 Q130,160 120,175" dur="7s" repeatCount="indefinite"/>
    </path>
    
    <!-- Pisciarelli fumarole -->
    <path d="M150,165 Q140,150 150,135 Q160,150 150,165" fill="url(#steam_gradient)" opacity="0.6" filter="url(#glow)">
      <animate attributeName="d" values="M150,165 Q140,150 150,135 Q160,150 150,165;M150,165 Q160,150 150,135 Q140,150 150,165;M150,165 Q140,150 150,135 Q160,150 150,165" dur="8s" repeatCount="indefinite"/>
    </path>
    
    <!-- Monte Nuovo fumarole -->
    <path d="M250,178 Q240,163 250,148 Q260,163 250,178" fill="url(#steam_gradient)" opacity="0.7" filter="url(#glow)">
      <animate attributeName="d" values="M250,178 Q240,163 250,148 Q260,163 250,178;M250,178 Q260,163 250,148 Q240,163 250,178;M250,178 Q240,163 250,148 Q260,163 250,178" dur="9s" repeatCount="indefinite"/>
    </path>
    
    <!-- Averno fumarole -->
    <path d="M300,170 Q290,155 300,140 Q310,155 300,170" fill="url(#steam_gradient)" opacity="0.5" filter="url(#glow)">
      <animate attributeName="d" values="M300,170 Q290,155 300,140 Q310,155 300,170;M300,170 Q310,155 300,140 Q290,155 300,170;M300,170 Q290,155 300,140 Q310,155 300,170" dur="10s" repeatCount="indefinite"/>
    </path>
    
    <!-- Agnano fumarole -->
    <path d="M350,177 Q340,162 350,147 Q360,162 350,177" fill="url(#steam_gradient)" opacity="0.6" filter="url(#glow)">
      <animate attributeName="d" values="M350,177 Q340,162 350,147 Q360,162 350,177;M350,177 Q360,162 350,147 Q340,162 350,177;M350,177 Q340,162 350,147 Q360,162 350,177" dur="8.5s" repeatCount="indefinite"/>
    </path>
  </g>
  
  <!-- Bay of Pozzuoli with reflections -->
  <path d="M0,330 C80,320 160,335 240,325 C320,315 400,330 500,315 L500,500 L0,500 Z" fill="url(#water_gradient)"/>
  
  <!-- Water reflection effect -->
  <g opacity="0.3">
    <path d="M120,330 L120,350" stroke="white" stroke-width="0.5" opacity="0.3"/>
    <path d="M200,335 L200,355" stroke="white" stroke-width="0.5" opacity="0.2"/>
    <path d="M300,330 L300,345" stroke="white" stroke-width="0.5" opacity="0.4"/>
    <path d="M400,325 L400,340" stroke="white" stroke-width="0.5" opacity="0.3"/>
  </g>
  
  <!-- Islands in the bay -->
  <g id="islands">
    <!-- Ischia -->
    <path d="M50,380 C55,375 70,373 80,380 C90,385 85,390 75,392 C65,394 45,385 50,380 Z" fill="url(#island_gradient)"/>
    
    <!-- Procida -->
    <path d="M120,370 C125,367 135,365 140,368 C145,371 143,375 138,376 C133,377 115,373 120,370 Z" fill="url(#island_gradient)"/>
    
    <!-- Nisida -->
    <ellipse cx="240" cy="345" rx="15" ry="5" fill="url(#island_gradient)"/>
  </g>
  
  <!-- Coastal settlements with detailed buildings -->
  <g id="settlements">
    <!-- Pozzuoli -->
    <g transform="translate(180,300)">
      <rect x="0" y="0" width="8" height="20" fill="#37474F"/>
      <rect x="10" y="5" width="12" height="15" fill="#455A64"/>
      <rect x="25" y="0" width="10" height="20" fill="#37474F"/>
      <rect x="40" y="5" width="15" height="15" fill="#455A64"/>
      <rect x="20" y="-5" width="5" height="25" fill="#263238"/>
      <polygon points="20,-5 25,-5 22.5,-10" fill="#263238"/>
    </g>
    
    <!-- Bacoli -->
    <g transform="translate(120,310)">
      <rect x="0" y="0" width="10" height="15" fill="#37474F"/>
      <rect x="15" y="3" width="8" height="12" fill="#455A64"/>
      <rect x="28" y="0" width="7" height="15" fill="#37474F"/>
    </g>
    
    <!-- Bagnoli -->
    <g transform="translate(250,305)">
      <rect x="0" y="0" width="12" height="18" fill="#37474F"/>
      <rect x="15" y="5" width="10" height="13" fill="#455A64"/>
      <rect x="30" y="0" width="8" height="18" fill="#37474F"/>
      <rect x="20" y="-3" width="5" height="21" fill="#263238"/>
    </g>
    
    <!-- Naples in distance -->
    <g transform="translate(350,300)">
      <rect x="0" y="0" width="15" height="25" fill="#263238"/>
      <rect x="20" y="5" width="20" height="20" fill="#37474F"/>
      <rect x="45" y="0" width="10" height="25" fill="#263238"/>
      <rect x="60" y="5" width="25" height="20" fill="#37474F"/>
      <rect x="90" y="0" width="15" height="25" fill="#263238"/>
      <rect x="30" y="-10" width="5" height="35" fill="#263238"/>
      <polygon points="30,-10 35,-10 32.5,-15" fill="#263238"/>
    </g>
  </g>
  
  <!-- Boats on water -->
  <g id="boats">
    <path d="M150,400 L160,400 L155,395 L150,400" fill="white" opacity="0.8"/>
    <path d="M280,390 L290,390 L285,385 L280,390" fill="white" opacity="0.7"/>
    <path d="M380,395 L390,395 L385,390 L380,395" fill="white" opacity="0.9"/>
    <path d="M420,405 L430,405 L425,400 L420,405" fill="white" opacity="0.8"/>
  </g>
  
  <!-- Small lights in settlements -->
  <g fill="#FFEB3B" opacity="0.5">
    <circle cx="185" cy="305" r="0.8"/>
    <circle cx="195" cy="310" r="0.6"/>
    <circle cx="220" cy="305" r="0.7"/>
    <circle cx="125" cy="315" r="0.6"/>
    <circle cx="130" cy="320" r="0.5"/>
    <circle cx="255" cy="310" r="0.7"/>
    <circle cx="265" cy="315" r="0.6"/>
    <circle cx="360" cy="305" r="0.8"/>
    <circle cx="375" cy="310" r="0.7"/>
    <circle cx="390" cy="315" r="0.6"/>
    <circle cx="420" cy="310" r="0.7"/>
  </g>
  
  <!-- Modern text label -->
  <g id="label">
    <rect x="125" y="440" width="250" height="35" rx="5" fill="#FF5722" opacity="0.9"/>
    <text x="250" y="465" font-family="Arial, sans-serif" font-size="18" font-weight="bold" text-anchor="middle" fill="white" letter-spacing="1">CAMPI FLEGREI</text>
  </g>
</svg>
