<svg width="500" height="500" viewBox="0 0 500 500" xmlns="http://www.w3.org/2000/svg">
  <!-- Sky gradient background -->
  <defs>
    <linearGradient id="sky_gradient" x1="0%" y1="0%" x2="0%" y2="100%">
      <stop offset="0%" style="stop-color:#1e3c72;stop-opacity:1" />
      <stop offset="100%" style="stop-color:#6399e8;stop-opacity:1" />
    </linearGradient>
    <linearGradient id="lava_gradient" x1="0%" y1="0%" x2="100%" y2="0%">
      <stop offset="0%" style="stop-color:#F83600;stop-opacity:1" />
      <stop offset="100%" style="stop-color:#FE8C00;stop-opacity:1" />
    </linearGradient>
    <filter id="glow" height="300%" width="300%" x="-100%" y="-100%">
      <feGaussianBlur stdDeviation="5" result="blur" />
      <feColorMatrix in="blur" mode="matrix" values="1 0 0 0 0  0 1 0 0 0  0 0 1 0 0  0 0 0 18 -7" result="glow" />
      <feBlend in="SourceGraphic" in2="glow" mode="normal" />
    </filter>
    <radialGradient id="crater_gradient" cx="50%" cy="50%" r="50%" fx="50%" fy="50%">
      <stop offset="0%" style="stop-color:#651FFF;stop-opacity:0.3" />
      <stop offset="100%" style="stop-color:#311B92;stop-opacity:0" />
    </radialGradient>
  </defs>
  
  <!-- Background and sky -->
  <rect width="500" height="500" fill="url(#sky_gradient)"/>
  
  <!-- Stars in night sky -->
  <g id="stars">
    <circle cx="50" cy="30" r="1" fill="white" opacity="0.8"/>
    <circle cx="120" cy="45" r="1.5" fill="white" opacity="0.7"/>
    <circle cx="200" cy="25" r="1" fill="white" opacity="0.9"/>
    <circle cx="300" cy="40" r="1.2" fill="white" opacity="0.8"/>
    <circle cx="380" cy="60" r="1" fill="white" opacity="0.7"/>
    <circle cx="450" cy="35" r="1.3" fill="white" opacity="0.9"/>
    <circle cx="80" cy="70" r="1.1" fill="white" opacity="0.7"/>
    <circle cx="150" cy="90" r="1" fill="white" opacity="0.6"/>
    <circle cx="250" cy="50" r="1.4" fill="white" opacity="0.8"/>
    <circle cx="340" cy="80" r="1" fill="white" opacity="0.7"/>
    <circle cx="420" cy="65" r="1.2" fill="white" opacity="0.9"/>
  </g>
  
  <!-- Moon -->
  <circle cx="400" cy="80" r="30" fill="#FFF9C4" filter="url(#glow)"/>
  <circle cx="385" cy="75" r="10" fill="#FFF9C4" opacity="0.4"/>
  
  <!-- Mountains in background -->
  <polygon points="0,220 50,180 100,210 150,190 200,170 250,200 300,180 350,220 400,190 450,200 500,180 500,500 0,500" fill="#3E2723" opacity="0.7"/>
  
  <!-- Sea with gradient -->
  <linearGradient id="sea_gradient" x1="0%" y1="0%" x2="0%" y2="100%">
    <stop offset="0%" style="stop-color:#0D47A1;stop-opacity:1" />
    <stop offset="100%" style="stop-color:#1A237E;stop-opacity:1" />
  </linearGradient>
  <path d="M0,400 C83,380 167,395 250,385 C333,375 417,390 500,370 L500,500 L0,500 Z" fill="url(#sea_gradient)"/>
  
  <!-- Land base -->
  <path d="M0,250 C125,230 250,260 375,240 C458,230 500,250 500,250 L500,400 C417,390 333,375 250,385 C167,395 83,380 0,400 Z" fill="#5D4037"/>
  
  <!-- Vesuvius with texturing -->
  <path d="M100,250 L250,90 L400,250" fill="#3E2723"/>
  <path d="M130,250 L250,110 L370,250" fill="#4E342E"/>
  <path d="M160,250 L250,130 L340,250" fill="#5D4037"/>
  <path d="M190,250 L250,150 L310,250" fill="#6D4C41"/>
  
  <!-- Crater with glowing effect -->
  <ellipse cx="250" cy="90" rx="40" ry="15" fill="#3E2723"/>
  <ellipse cx="250" cy="90" rx="35" ry="10" fill="url(#crater_gradient)" filter="url(#glow)"/>
  
  <!-- Lava flows with animation and glow -->
  <path d="M250,90 L260,120 L240,150 L265,180 L235,210 L270,240 L230,250" stroke="url(#lava_gradient)" stroke-width="10" fill="none" filter="url(#glow)" opacity="0.7">
    <animate attributeName="opacity" values="0.5;0.8;0.5" dur="3s" repeatCount="indefinite"/>
  </path>
  
  <!-- Smoke with animation -->
  <g opacity="0.7">
    <path d="M250,75 Q230,55 250,35 Q270,55 250,75" fill="#E0E0E0" opacity="0.6">
      <animate attributeName="d" values="M250,75 Q230,55 250,35 Q270,55 250,75;M250,75 Q270,55 250,35 Q230,55 250,75;M250,75 Q230,55 250,35 Q270,55 250,75" dur="8s" repeatCount="indefinite"/>
    </path>
    <path d="M280,70 Q300,40 280,10 Q260,40 280,70" fill="#BDBDBD" opacity="0.5">
      <animate attributeName="d" values="M280,70 Q300,40 280,10 Q260,40 280,70;M280,70 Q260,40 280,10 Q300,40 280,70;M280,70 Q300,40 280,10 Q260,40 280,70" dur="10s" repeatCount="indefinite"/>
    </path>
    <path d="M220,70 Q200,40 220,10 Q240,40 220,70" fill="#9E9E9E" opacity="0.5">
      <animate attributeName="d" values="M220,70 Q200,40 220,10 Q240,40 220,70;M220,70 Q240,40 220,10 Q200,40 220,70;M220,70 Q200,40 220,10 Q240,40 220,70" dur="9s" repeatCount="indefinite"/>
    </path>
  </g>
  
  <!-- Detailed city silhouette -->
  <g fill="#263238">
    <!-- Naples and surrounding areas -->
    <rect x="50" y="330" width="25" height="70"/>
    <rect x="65" y="350" width="15" height="50"/>
    <rect x="90" y="340" width="20" height="60"/>
    <rect x="120" y="360" width="30" height="40"/>
    <rect x="160" y="330" width="20" height="70"/>
    <rect x="190" y="350" width="15" height="50"/>
    <rect x="215" y="335" width="20" height="65"/>
    <rect x="245" y="360" width="25" height="40"/>
    <!-- Towers and distinctive buildings -->
    <rect x="80" y="320" width="10" height="80"/>
    <polygon points="80,320 90,320 85,305" fill="#37474F"/>
    <rect x="170" y="310" width="10" height="90"/>
    <polygon points="170,310 180,310 175,290" fill="#37474F"/>
    <!-- More buildings on the right side -->
    <rect x="300" y="340" width="20" height="60"/>
    <rect x="330" y="330" width="15" height="70"/>
    <rect x="355" y="345" width="25" height="55"/>
    <rect x="390" y="335" width="15" height="65"/>
    <rect x="415" y="350" width="30" height="50"/>
    <rect x="455" y="340" width="20" height="60"/>
  </g>
  
  <!-- Lights in the city -->
  <g fill="#FFEB3B" opacity="0.6">
    <circle cx="60" cy="360" r="1"/>
    <circle cx="95" cy="350" r="0.8"/>
    <circle cx="130" cy="370" r="1"/>
    <circle cx="170" cy="340" r="0.7"/>
    <circle cx="200" cy="360" r="0.9"/>
    <circle cx="225" cy="345" r="0.8"/>
    <circle cx="255" cy="370" r="1"/>
    <circle cx="310" cy="350" r="0.7"/>
    <circle cx="335" cy="340" r="0.8"/>
    <circle cx="365" cy="355" r="0.9"/>
    <circle cx="395" cy="345" r="0.7"/>
    <circle cx="425" cy="360" r="1"/>
    <circle cx="465" cy="350" r="0.8"/>
  </g>
  
  <!-- Small boats on water -->
  <g>
    <path d="M150,390 L160,390 L155,395 L150,390" fill="#ECEFF1"/>
    <path d="M320,385 L330,385 L325,390 L320,385" fill="#ECEFF1"/>
    <path d="M420,395 L430,395 L425,400 L420,395" fill="#ECEFF1"/>
  </g>
  
  <!-- Modern styled text label -->
  <g id="label">
    <rect x="175" y="450" width="150" height="30" rx="5" fill="#FF5722" opacity="0.9"/>
    <text x="250" y="472" font-family="Arial, sans-serif" font-size="16" font-weight="bold" text-anchor="middle" fill="#FFFFFF" letter-spacing="2">VESUVIO</text>
  </g>
</svg>
