<?xml version="1.0" encoding="UTF-8"?>
<svg width="400" height="220" viewBox="0 0 400 220" xmlns="http://www.w3.org/2000/svg">
  <defs>
    <linearGradient id="skyG2" x1="0" y1="0" x2="0" y2="1">
      <stop offset="0%" stop-color="#0e1117"/>
      <stop offset="100%" stop-color="#1c1c2e"/>
    </linearGradient>
    <linearGradient id="groundG" x1="0" y1="0" x2="0" y2="1">
      <stop offset="0%" stop-color="#3d2508"/>
      <stop offset="100%" stop-color="#1a1005"/>
    </linearGradient>
    <linearGradient id="seaG2" x1="0" y1="0" x2="0" y2="1">
      <stop offset="0%" stop-color="#1a3a6a"/>
      <stop offset="100%" stop-color="#0a1828"/>
    </linearGradient>
    <radialGradient id="hotspot1" cx="50%" cy="50%" r="50%">
      <stop offset="0%" stop-color="#ff8c00" stop-opacity="0.85"/>
      <stop offset="100%" stop-color="#ff4500" stop-opacity="0"/>
    </radialGradient>
    <radialGradient id="hotspot2" cx="50%" cy="50%" r="50%">
      <stop offset="0%" stop-color="#ff6600" stop-opacity="0.7"/>
      <stop offset="100%" stop-color="#ff2200" stop-opacity="0"/>
    </radialGradient>
    <filter id="glow2" x="-50%" y="-50%" width="200%" height="200%">
      <feGaussianBlur stdDeviation="2" result="blur"/>
      <feMerge><feMergeNode in="blur"/><feMergeNode in="SourceGraphic"/></feMerge>
    </filter>
  </defs>

  <rect width="400" height="220" fill="url(#skyG2)"/>

  <circle cx="350" cy="30" r="14" fill="#fffde7" opacity="0.85" filter="url(#glow2)"/>
  <circle cx="55" cy="25" r="1.5" fill="white" opacity="0.7"/>
  <circle cx="100" cy="15" r="1" fill="white" opacity="0.6"/>
  <circle cx="160" cy="35" r="1.5" fill="white" opacity="0.7"/>
  <circle cx="220" cy="18" r="1" fill="white" opacity="0.5"/>
  <circle cx="275" cy="40" r="1" fill="white" opacity="0.6"/>
  <circle cx="35" cy="50" r="1.5" fill="white" opacity="0.5"/>

  <path d="M0,150 Q20,145 40,148 Q70,140 100,135 Q130,125 160,128 Q180,122 200,118 Q220,112 240,115 Q270,120 300,125 Q340,130 380,128 L400,130 L400,220 L0,220 Z" fill="url(#groundG)"/>

  <ellipse cx="155" cy="132" rx="28" ry="12" fill="url(#hotspot1)" opacity="0.75"/>
  <circle cx="155" cy="128" r="6" fill="#ff8c00" filter="url(#glow2)" opacity="0.9"/>
  <path d="M152,133 Q154,118 155,112 Q156,118 158,133" fill="#ff6600" opacity="0.5"/>
  <text x="155" y="148" text-anchor="middle" font-family="Arial,sans-serif" font-size="7.5" fill="#f4a261">Solfatara</text>

  <ellipse cx="230" cy="122" rx="20" ry="9" fill="url(#hotspot2)" opacity="0.6"/>
  <circle cx="230" cy="118" r="4" fill="#ff6600" filter="url(#glow2)" opacity="0.75"/>
  <text x="230" y="136" text-anchor="middle" font-family="Arial,sans-serif" font-size="7.5" fill="#f4a261">Pisciarelli</text>

  <ellipse cx="95" cy="140" rx="14" ry="6" fill="url(#hotspot2)" opacity="0.45"/>
  <text x="95" y="154" text-anchor="middle" font-family="Arial,sans-serif" font-size="7.5" fill="#aaa">Agnano</text>

  <path d="M310,165 Q320,158 335,162 Q350,158 360,162 Q375,156 395,160 L400,162 L400,220 L300,220 Z" fill="#1a3a6a" opacity="0.85"/>
  <rect x="0" y="185" width="310" height="35" fill="url(#seaG2)"/>
  <path d="M0,188 Q40,182 80,188 Q120,194 160,188 Q200,182 240,188 Q280,194 310,188" fill="none" stroke="#2a5a9a" stroke-width="1" opacity="0.5"/>
  <text x="155" y="210" text-anchor="middle" font-family="Arial,sans-serif" font-size="8.5" fill="#4cc9f0" opacity="0.75">Golfo di Pozzuoli</text>

  <rect x="4" y="196" width="168" height="16" rx="3" fill="#111827" opacity="0.88"/>
  <circle cx="14" cy="204" r="3.5" fill="#f4a261"/>
  <text x="22" y="207" font-family="Arial,sans-serif" font-size="8.5" fill="#eee">CAMPI FLEGREI  Alert: GIALLO</text>

  <rect x="228" y="196" width="168" height="16" rx="3" fill="#111827" opacity="0.88"/>
  <text x="312" y="207" text-anchor="middle" font-family="Arial,sans-serif" font-size="8" fill="#aaa">INGV OV &#8226; Bradisismo attivo</text>

  <text x="200" y="90" text-anchor="middle" font-family="Arial,sans-serif" font-size="14" font-weight="bold" fill="#f4a261" filter="url(#glow2)">CAMPI FLEGREI</text>
  <text x="200" y="103" text-anchor="middle" font-family="Arial,sans-serif" font-size="8" fill="#aaa">Monitoraggio INGV OV — Real Time</text>
</svg>
